<?xml version="1.0" encoding="utf-8"?>
<!-- Generator: Adobe Illustrator 28.2.0, SVG Export Plug-In . SVG Version: 6.00 Build 0)  -->
<svg version="1.1" id="图层_1" xmlns="http://www.w3.org/2000/svg" xmlns:xlink="http://www.w3.org/1999/xlink" x="0px" y="0px"
	 viewBox="0 0 128 128" style="enable-background:new 0 0 128 128;" xml:space="preserve">
<style type="text/css">
	.st0{fill:#E5E5E5;stroke:#D04424;stroke-width:6;stroke-miterlimit:10;}
	.st1{fill:#BC3D20;}
	.st2{fill:#BB391C;}
	.st3{fill:#FFFFFF;}
	.st4{font-family:'YuGothicUI-Bold';}
	.st5{font-size:54.1312px;}
	.st6{opacity:0.47;fill:#282828;enable-background:new    ;}
	.st7{fill:#D04424;}
	.st8{enable-background:new    ;}
</style>
<path class="st0" d="M122.2,104.7H70.4c-1.3,0-2.3-1-2.3-2.3V25.5c0-1.3,1-2.3,2.3-2.3h51.8c1.3,0,2.3,1,2.3,2.3v76.9
	C124.6,103.7,123.5,104.7,122.2,104.7z"/>
<path class="st1" d="M90.9,52.8h13.6c1.1,0,1.9,0.9,1.8,2C105,66.4,92.2,74.5,79.5,67.5c-2.2-1.2-4-3-5.1-5.1
	c-7-12.6,1.1-25.5,12.7-26.8c1.1-0.1,2,0.7,2,1.8c0,3.4,0,10.3,0,13.6C89.1,52,89.9,52.8,90.9,52.8z"/>
<path class="st1" d="M93.7,31.8c8.7,0.8,15.6,7.7,16.4,16.4c0.1,0.9-0.6,1.7-1.5,1.7c-3.5,0-11.6,0-15,0c-0.9,0-1.5-0.7-1.5-1.5
	c0-3.4,0-11.5,0-15C92,32.4,92.8,31.7,93.7,31.8z"/>
<path class="st2" d="M111.6,81.3H71.9c-1.3,0-2.3-1-2.3-2.3v-0.3c0-1.3,1-2.3,2.3-2.3h39.7c1.3,0,2.3,1,2.3,2.3V79
	C113.9,80.3,112.9,81.3,111.6,81.3z"/>
<path class="st1" d="M111.6,94.1H71.9c-1.3,0-2.3-1-2.3-2.3v-0.3c0-1.3,1-2.3,2.3-2.3h39.7c1.3,0,2.3,1,2.3,2.3v0.3
	C113.9,93.1,112.9,94.1,111.6,94.1z"/>
<text transform="matrix(1.0387 0 0 1 21.4062 66.5732)" class="st3 st4 st5">p</text>
<rect x="68.1" y="19.8" class="st6" width="15.5" height="88.8"/>
<path class="st7" d="M71.1,125L3.9,112c-1.1-0.2-1.9-1.2-1.9-2.4V22c0-1.1,0.8-2.1,1.9-2.4L71.1,6.7C72.6,6.4,74,7.5,74,9.1v113.5
	C73.9,124.1,72.6,125.2,71.1,125z"/>
<g class="st8">
	<path class="st3" d="M32.1,71.4v14.7h-6.7V45.6h12.3c4.6,0,8.2,1.1,10.8,3.2c2.6,2.2,3.8,5.2,3.8,9.1c0,3.9-1.3,7.1-4,9.7
		c-2.7,2.5-6.3,3.8-10.8,3.8H32.1z M32.1,51.1v14.8h4.3c2.9,0,5.1-0.7,6.6-2c1.5-1.3,2.3-3.2,2.3-5.6c0-4.8-2.8-7.1-8.3-7.1H32.1z"
		/>
</g>
</svg>
